{
	"asset":{
		"generator":"Khronos glTF Blender I/O v4.3.47",
		"version":"2.0"
	},
	"scene":0,
	"scenes":[
		{
			"name":"Scene",
			"nodes":[
				12
			]
		}
	],
	"nodes":[
		{
			"mesh":0,
			"name":"Cube_Material.002_0"
		},
		{
			"mesh":1,
			"name":"Cube_Material.003_0"
		},
		{
			"mesh":2,
			"name":"Cube_Material.004_0"
		},
		{
			"children":[
				0,
				1,
				2
			],
			"name":"Cube",
			"rotation":[
				0.638704240322113,
				0,
				0,
				0.7694524526596069
			],
			"scale":[
				11.038330078125,
				11.143160820007324,
				13.86021614074707
			],
			"translation":[
				0.00054168701171875,
				-1.4211313724517822,
				1.4683878421783447
			]
		},
		{
			"mesh":3,
			"name":"Cube.001_Material.002_0"
		},
		{
			"mesh":4,
			"name":"Cube.002_Material.002_0"
		},
		{
			"children":[
				5
			],
			"name":"Cube.002",
			"rotation":[
				0.70710688829422,
				0,
				0,
				0.7071066498756409
			],
			"scale":[
				1.0346791744232178,
				0.9716902375221252,
				0.9679926633834839
			],
			"translation":[
				-0.01003265380859375,
				-0.04711022973060608,
				-0.7392693161964417
			]
		},
		{
			"mesh":5,
			"name":"Keyboard_Material.001_0"
		},
		{
			"children":[
				7
			],
			"name":"Keyboard",
			"rotation":[
				0.7071069478988647,
				0,
				0,
				0.7071065902709961
			],
			"scale":[
				0.9761013984680176,
				0.9761013984680176,
				0.9779924750328064
			],
			"translation":[
				0.024124152958393097,
				-0.03167122229933739,
				0.4800852835178375
			]
		},
		{
			"children":[
				3,
				4,
				6,
				8
			],
			"name":"Cube.001",
			"rotation":[
				0.9973425269126892,
				0.0728558599948883,
				0,
				7.529724399546467e-08
			],
			"scale":[
				66.63826751708984,
				52.752689361572266,
				66.63829040527344
			],
			"translation":[
				14.371581077575684,
				43.048091888427734,
				179.5889129638672
			]
		},
		{
			"children":[
				9
			],
			"name":"RootNode.001",
			"translation":[
				0,
				0,
				3.0517578125e-05
			]
		},
		{
			"children":[
				10
			],
			"name":"16f4a6dd9e0a4beaaccd1d69b4ded23b.fbx",
			"rotation":[
				0.70710688829422,
				0,
				0,
				0.7071066498756409
			],
			"scale":[
				0.009999999776482582,
				0.010000000707805157,
				0.010000000707805157
			]
		},
		{
			"children":[
				11
			],
			"name":"Sketchfab_model.001",
			"rotation":[
				-0.70710688829422,
				0,
				0,
				0.7071066498756409
			],
			"translation":[
				0,
				0,
				-2.904630184173584
			]
		}
	],
	"materials":[
		{
			"doubleSided":true,
			"name":"Material.002",
			"pbrMetallicRoughness":{
				"baseColorFactor":[
					0.7164199948310852,
					0.7470629811286926,
					0.7874159812927246,
					1
				],
				"metallicFactor":0.5653350353240967,
				"roughnessFactor":0.25447696447372437
			}
		},
		{
			"doubleSided":true,
			"emissiveFactor":[
				0.17437425255775452,
				0.10065232217311859,
				0.2250409871339798
			],
			"name":"Material.003",
			"pbrMetallicRoughness":{
				"baseColorTexture":{
					"index":0
				},
				"metallicFactor":0,
				"roughnessFactor":0.2666674852371216
			}
		},
		{
			"doubleSided":true,
			"name":"Material.004",
			"pbrMetallicRoughness":{
				"baseColorFactor":[
					0.05318180099129677,
					0.05318180099129677,
					0.05318180099129677,
					1
				],
				"metallicFactor":0,
				"roughnessFactor":0.31542953848838806
			}
		},
		{
			"doubleSided":true,
			"name":"Material.001",
			"pbrMetallicRoughness":{
				"baseColorTexture":{
					"index":1
				},
				"metallicFactor":0,
				"roughnessFactor":0.1508575975894928
			}
		}
	],
	"meshes":[
		{
			"name":"Cube_Material.002_0",
			"primitives":[
				{
					"attributes":{
						"POSITION":0,
						"NORMAL":1,
						"TEXCOORD_0":2
					},
					"indices":3,
					"material":0
				}
			]
		},
		{
			"name":"Cube_Material.003_0",
			"primitives":[
				{
					"attributes":{
						"POSITION":4,
						"NORMAL":5,
						"TEXCOORD_0":6
					},
					"indices":7,
					"material":1
				}
			]
		},
		{
			"name":"Cube_Material.004_0",
			"primitives":[
				{
					"attributes":{
						"POSITION":8,
						"NORMAL":9,
						"TEXCOORD_0":10
					},
					"indices":11,
					"material":2
				}
			]
		},
		{
			"name":"Cube.001_Material.002_0",
			"primitives":[
				{
					"attributes":{
						"POSITION":12,
						"NORMAL":13,
						"TEXCOORD_0":14
					},
					"indices":15,
					"material":0
				}
			]
		},
		{
			"name":"Cube.002_Material.002_0",
			"primitives":[
				{
					"attributes":{
						"POSITION":16,
						"NORMAL":17,
						"TEXCOORD_0":18
					},
					"indices":19,
					"material":0
				}
			]
		},
		{
			"name":"Keyboard_Material.001_0",
			"primitives":[
				{
					"attributes":{
						"POSITION":20,
						"NORMAL":21,
						"TEXCOORD_0":22
					},
					"indices":23,
					"material":3
				}
			]
		}
	],
	"textures":[
		{
			"sampler":0,
			"source":0
		},
		{
			"sampler":0,
			"source":1
		}
	],
	"images":[
		{
			"mimeType":"image/png",
			"name":"Material.003_baseColor",
			"uri":"Material_003_baseColor.png"
		},
		{
			"mimeType":"image/jpeg",
			"name":"Material.001_baseColor",
			"uri":"Material_001_baseColor.jpg"
		}
	],
	"accessors":[
		{
			"bufferView":0,
			"componentType":5126,
			"count":87,
			"max":[
				0.15522398054599762,
				0.0034133170265704393,
				0.11994175612926483
			],
			"min":[
				-0.1553172916173935,
				-0.005008514039218426,
				-0.10472126305103302
			],
			"type":"VEC3"
		},
		{
			"bufferView":1,
			"componentType":5126,
			"count":87,
			"type":"VEC3"
		},
		{
			"bufferView":2,
			"componentType":5126,
			"count":87,
			"type":"VEC2"
		},
		{
			"bufferView":3,
			"componentType":5123,
			"count":216,
			"type":"SCALAR"
		},
		{
			"bufferView":4,
			"componentType":5126,
			"count":4,
			"max":[
				0.14883272349834442,
				-0.0009305644780397415,
				0.10817186534404755
			],
			"min":[
				-0.14873448014259338,
				-0.0012628082185983658,
				-0.09280849993228912
			],
			"type":"VEC3"
		},
		{
			"bufferView":5,
			"componentType":5126,
			"count":4,
			"type":"VEC3"
		},
		{
			"bufferView":6,
			"componentType":5126,
			"count":4,
			"type":"VEC2"
		},
		{
			"bufferView":7,
			"componentType":5123,
			"count":6,
			"type":"SCALAR"
		},
		{
			"bufferView":8,
			"componentType":5126,
			"count":83,
			"max":[
				0.15522398054599762,
				0.0034133170265704393,
				0.11976803094148636
			],
			"min":[
				-0.1553172916173935,
				-0.005008514039218426,
				-0.10472128540277481
			],
			"type":"VEC3"
		},
		{
			"bufferView":9,
			"componentType":5126,
			"count":83,
			"type":"VEC3"
		},
		{
			"bufferView":10,
			"componentType":5126,
			"count":83,
			"type":"VEC2"
		},
		{
			"bufferView":11,
			"componentType":5123,
			"count":192,
			"type":"SCALAR"
		},
		{
			"bufferView":12,
			"componentType":5126,
			"count":5596,
			"max":[
				1.7778929471969604,
				0.05643340200185776,
				1.2480430603027344
			],
			"min":[
				-1.7778929471969604,
				-0.05643339455127716,
				-1.2480430603027344
			],
			"type":"VEC3"
		},
		{
			"bufferView":13,
			"componentType":5126,
			"count":5596,
			"type":"VEC3"
		},
		{
			"bufferView":14,
			"componentType":5126,
			"count":5596,
			"type":"VEC2"
		},
		{
			"bufferView":15,
			"componentType":5123,
			"count":27456,
			"type":"SCALAR"
		},
		{
			"bufferView":16,
			"componentType":5126,
			"count":129,
			"max":[
				0.6632170677185059,
				0.43380576372146606,
				0.0177377387881279
			],
			"min":[
				-0.6632170677185059,
				-0.43380576372146606,
				-0.0177377387881279
			],
			"type":"VEC3"
		},
		{
			"bufferView":17,
			"componentType":5126,
			"count":129,
			"type":"VEC3"
		},
		{
			"bufferView":18,
			"componentType":5126,
			"count":129,
			"type":"VEC2"
		},
		{
			"bufferView":19,
			"componentType":5123,
			"count":564,
			"type":"SCALAR"
		},
		{
			"bufferView":20,
			"componentType":5126,
			"count":7659,
			"max":[
				1.5984634160995483,
				0.6148844957351685,
				0.012847517617046833
			],
			"min":[
				-1.6492480039596558,
				-0.6679954528808594,
				-0.012847517617046833
			],
			"type":"VEC3"
		},
		{
			"bufferView":21,
			"componentType":5126,
			"count":7659,
			"type":"VEC3"
		},
		{
			"bufferView":22,
			"componentType":5126,
			"count":7659,
			"type":"VEC2"
		},
		{
			"bufferView":23,
			"componentType":5123,
			"count":44940,
			"type":"SCALAR"
		}
	],
	"bufferViews":[
		{
			"buffer":0,
			"byteLength":1044,
			"byteOffset":0,
			"target":34962
		},
		{
			"buffer":0,
			"byteLength":1044,
			"byteOffset":1044,
			"target":34962
		},
		{
			"buffer":0,
			"byteLength":696,
			"byteOffset":2088,
			"target":34962
		},
		{
			"buffer":0,
			"byteLength":432,
			"byteOffset":2784,
			"target":34963
		},
		{
			"buffer":0,
			"byteLength":48,
			"byteOffset":3216,
			"target":34962
		},
		{
			"buffer":0,
			"byteLength":48,
			"byteOffset":3264,
			"target":34962
		},
		{
			"buffer":0,
			"byteLength":32,
			"byteOffset":3312,
			"target":34962
		},
		{
			"buffer":0,
			"byteLength":12,
			"byteOffset":3344,
			"target":34963
		},
		{
			"buffer":0,
			"byteLength":996,
			"byteOffset":3356,
			"target":34962
		},
		{
			"buffer":0,
			"byteLength":996,
			"byteOffset":4352,
			"target":34962
		},
		{
			"buffer":0,
			"byteLength":664,
			"byteOffset":5348,
			"target":34962
		},
		{
			"buffer":0,
			"byteLength":384,
			"byteOffset":6012,
			"target":34963
		},
		{
			"buffer":0,
			"byteLength":67152,
			"byteOffset":6396,
			"target":34962
		},
		{
			"buffer":0,
			"byteLength":67152,
			"byteOffset":73548,
			"target":34962
		},
		{
			"buffer":0,
			"byteLength":44768,
			"byteOffset":140700,
			"target":34962
		},
		{
			"buffer":0,
			"byteLength":54912,
			"byteOffset":185468,
			"target":34963
		},
		{
			"buffer":0,
			"byteLength":1548,
			"byteOffset":240380,
			"target":34962
		},
		{
			"buffer":0,
			"byteLength":1548,
			"byteOffset":241928,
			"target":34962
		},
		{
			"buffer":0,
			"byteLength":1032,
			"byteOffset":243476,
			"target":34962
		},
		{
			"buffer":0,
			"byteLength":1128,
			"byteOffset":244508,
			"target":34963
		},
		{
			"buffer":0,
			"byteLength":91908,
			"byteOffset":245636,
			"target":34962
		},
		{
			"buffer":0,
			"byteLength":91908,
			"byteOffset":337544,
			"target":34962
		},
		{
			"buffer":0,
			"byteLength":61272,
			"byteOffset":429452,
			"target":34962
		},
		{
			"buffer":0,
			"byteLength":89880,
			"byteOffset":490724,
			"target":34963
		}
	],
	"samplers":[
		{
			"magFilter":9729,
			"minFilter":9987
		}
	],
	"buffers":[
		{
			"byteLength":580604,
			"uri":"scene.bin"
		}
	]
}
